<svg width="200" height="228" viewBox="0 0 200 228" fill="none" xmlns="http://www.w3.org/2000/svg">
<path fill-rule="evenodd" clip-rule="evenodd" d="M137.917 28.2246C141.051 24.5452 143.173 20.036 142.819 14.9834C141.797 0.425214 121.532 3.62782 117.59 10.9755C113.648 18.3232 114.116 36.9613 119.211 38.2745C121.242 38.7982 125.571 37.5153 129.976 34.8601L127.211 54.4218H143.537L137.917 28.2246Z" fill="#915B3C"/>
<path fill-rule="evenodd" clip-rule="evenodd" d="M139.171 31.5017C141.22 22.3853 147.058 16.171 146.167 12.0964C145.572 9.37998 143.988 7.69073 141.414 7.02866C140.083 1.6432 135.789 -0.64745 128.534 0.156719C117.65 1.36297 111.007 5.88283 113.876 15.8285C116.513 15.8285 119.696 14.8748 124.098 16.5088C125.495 17.0272 126.494 18.6349 127.095 21.332H129.084C131.015 18.1313 132.919 16.9552 134.795 17.8035C136.672 18.6519 137.099 20.7125 136.075 23.9854L137.055 31.5017H139.171Z" fill="#191847"/>
<path fill-rule="evenodd" clip-rule="evenodd" d="M189.116 139.456H110.884C104.873 139.456 100 144.329 100 150.34V212.925C100 218.936 104.873 223.81 110.884 223.81H189.116C195.127 223.81 200 218.936 200 212.925V150.34C200 144.329 195.127 139.456 189.116 139.456ZM178.231 158.503C179.734 158.503 180.952 159.722 180.952 161.225V202.041C180.952 203.544 179.734 204.762 178.231 204.762H121.769C120.266 204.762 119.048 203.544 119.048 202.041V161.225C119.048 159.722 120.266 158.503 121.769 158.503H178.231Z" fill="#C5CFD6"/>
<path fill-rule="evenodd" clip-rule="evenodd" d="M32.5449 220.408C45.9571 204.03 55.0321 191.888 59.7699 183.982C67.8822 170.445 74.5217 158.4 76.617 153.799C81.6134 142.827 65.1144 137.689 61.3803 142.807C55.7285 150.553 43.6585 174.927 25.1701 215.93L32.5449 220.408Z" fill="#B28B67"/>
<path fill-rule="evenodd" clip-rule="evenodd" d="M60.0289 215.646L84.9897 152.814C90.3283 141.36 64.5471 133.831 60.6236 139.162C51.7161 151.263 30.545 199.003 27.8912 202.608L60.0289 215.646Z" fill="#2F3676"/>
<path fill-rule="evenodd" clip-rule="evenodd" d="M126.508 203.046C121.646 195.953 103.96 172.091 94.3272 162.218C91.5591 159.381 88.8581 156.658 86.3035 154.121C78.7102 146.578 63.5893 159.256 71.1686 166.126C90.044 183.235 117.584 206.331 119.885 208.391C123.11 211.277 129.564 207.503 126.508 203.046Z" fill="#915B3C"/>
<path fill-rule="evenodd" clip-rule="evenodd" d="M125.371 199.841C127.046 201.22 128.136 202.347 128.64 203.22C129.253 204.282 129.971 205.935 130.794 208.177L97.5659 227.362C95.0543 225.006 94.663 223.177 96.3919 221.875C98.1209 220.573 99.5477 219.476 100.672 218.582L112.141 202.78C112.362 202.476 112.787 202.408 113.091 202.629C113.097 202.633 113.102 202.637 113.107 202.64L115.49 204.475C117.676 204.285 119.308 203.878 120.384 203.257C121.259 202.752 122.263 201.701 123.397 200.104C123.832 199.492 124.681 199.347 125.294 199.782C125.32 199.801 125.346 199.821 125.371 199.841Z" fill="#E4E4E4"/>
<path fill-rule="evenodd" clip-rule="evenodd" d="M38.3142 217.961C39.0753 219.992 39.4558 221.512 39.4558 222.521C39.4558 223.748 39.2514 225.538 38.8427 227.891H0.474113C-0.522949 224.595 0.0526123 222.815 2.2008 222.553C4.34899 222.29 6.13353 222.053 7.55441 221.841L25.3878 213.891C25.7309 213.738 26.1331 213.892 26.2861 214.235C26.2887 214.241 26.2912 214.247 26.2937 214.253L27.44 217.033C29.4287 217.961 31.0446 218.425 32.288 218.425C33.2981 218.425 34.6932 218.017 36.4731 217.201C37.1562 216.888 37.9638 217.188 38.2769 217.871C38.2904 217.9 38.3028 217.93 38.3142 217.961Z" fill="#E4E4E4"/>
<path fill-rule="evenodd" clip-rule="evenodd" d="M93.9714 155.952C114.717 152.573 128.614 150.262 135.659 149.019C155.743 145.478 161.6 134.67 158.137 111.09H121.133C116.236 112.504 95.7752 121.25 59.75 137.328C53.2683 140.545 54.4754 150.032 55.6602 153.158C55.7085 153.285 66.6353 172.009 88.4406 209.328L118.711 190.045L93.9145 158.225C93.2596 156.906 93.2786 156.148 93.9714 155.952Z" fill="#5C63AB"/>
<path fill-rule="evenodd" clip-rule="evenodd" d="M91.3053 102.185L69.6058 118.119C63.7205 119.707 58.8034 121.683 54.8547 124.047C53.922 124.896 52.7947 126.618 56.663 126.32C60.5313 126.023 64.6136 125.884 65.1474 127.203C65.6811 128.523 63.3402 130.101 64.4192 131.881C65.1385 133.068 68.5368 130.092 74.614 122.953L96.1022 114.042L91.3053 102.185ZM174.62 102.735L160.405 102.79C169.182 131.126 173.921 146.161 174.62 147.895C176.195 151.796 172.864 157.737 171.439 160.93C176.079 163.006 175.584 155.318 181.437 158.04C186.779 160.526 190.842 165.029 197.014 161.221C197.773 160.752 198.605 158.989 196.596 157.612C191.59 154.18 184.377 148.173 183.403 146.196C182.074 143.5 179.146 129.013 174.62 102.735Z" fill="#915B3C"/>
<path fill-rule="evenodd" clip-rule="evenodd" d="M134.221 43.083L128.339 42.074C106.513 60.928 97.5488 97.1489 70.7963 116.337L77.2354 124.318C123.646 118.572 135.15 74.391 134.221 43.083Z" fill="#E87613"/>
<path fill-rule="evenodd" clip-rule="evenodd" d="M159.864 117.007H107.815C105.437 117.007 105.885 113.572 106.229 111.84C110.197 91.8392 125.686 70.2798 125.686 41.8099L140.699 39.4557C153.117 59.4274 157.412 84.0166 159.864 117.007Z" fill="#DDE3E9"/>
<path fill-rule="evenodd" clip-rule="evenodd" d="M159.446 59.087C161.626 58.4602 163.353 56.9984 164.626 54.7015C170.113 44.8 168.131 39.3486 162.267 37.5566C156.403 35.7647 151.173 39.4558 141.83 39.4558C141.322 39.4558 140.856 39.4876 140.434 39.5513L135.734 39.8195C122.249 85.5205 118.53 116.012 124.577 131.293H165.543C167.97 136.952 170.293 141.714 172.511 145.578H183.673C184.724 111.61 176.648 82.7799 159.446 59.087Z" fill="#FF9B21"/>
<path fill-rule="evenodd" clip-rule="evenodd" d="M156.622 107.821C155.334 118.601 153.24 126.425 150.34 131.292H165.543C162.712 124.69 159.738 116.867 156.622 107.821Z" fill="black" fill-opacity="0.1"/>
</svg>
