<svg width="130" height="26" viewBox="0 0 130 26" fill="none" xmlns="http://www.w3.org/2000/svg">
<path fill-rule="evenodd" clip-rule="evenodd" d="M7.32343 7.74669C7.05587 7.28208 7.17922 6.63682 7.59974 6.30399L12.9754 2.04929C13.0245 2.01047 13.0755 1.97784 13.1277 1.95128C13.1801 1.88126 13.2636 1.83594 13.3578 1.83594H14.8277H14.9935H16.2605H18.1417H18.1833H19.9463H21.373H22.849C23.0075 1.83594 23.1361 1.96447 23.1361 2.12302V5.02572V9.30102C23.1361 9.54627 23.1259 9.78877 23.1061 10.028C23.1022 10.076 23.0856 10.1222 23.0587 10.1622L21.532 12.4295L18.9544 16.2573C18.9231 16.3038 18.879 16.3402 18.8271 16.3611C18.4438 16.5153 18.044 16.6281 17.6316 16.6949C17.4 16.7324 17.2462 16.4775 17.3579 16.2712C17.4878 16.0312 17.6063 15.782 17.7125 15.5245C17.8635 15.1585 17.9897 14.7759 18.0886 14.3797C18.2542 13.7158 18.343 13.0136 18.343 12.2872V11.7445V11.4544V8.84178C18.343 8.68323 18.2145 8.5547 18.056 8.5547H17.6409H15.1533H11.9523H10.3491H8.57212C8.34465 8.52325 8.12977 8.46061 7.94183 8.3695C7.633 8.2198 7.41556 8.00228 7.32575 7.75321L7.32343 7.74669ZM7.73808 7.43475H10.3491H11.9523C13.476 7.43475 14.8751 6.81188 15.9733 5.77222C16.11 5.64278 16.2421 5.50688 16.3691 5.36492C16.4672 5.2554 16.5622 5.14227 16.6541 5.02572C17.1323 4.4193 17.5255 3.72016 17.8119 2.954C17.88 2.77183 17.7419 2.58245 17.5474 2.58245H16.2605H14.9935H14.4777H13.8688L7.73808 7.43475ZM19.6175 5.18528C19.6175 5.62569 19.9745 5.98272 20.4149 5.98272C20.8553 5.98272 21.2124 5.62569 21.2124 5.18528C21.2124 4.74486 20.8553 4.38783 20.4149 4.38783C19.9745 4.38783 19.6175 4.74486 19.6175 5.18528ZM1.21512 13.7685C0.79456 14.1014 0.671234 14.7467 0.938889 15.2113L0.941173 15.2178C1.03099 15.4668 1.24843 15.6844 1.55725 15.8341C1.74716 15.9261 1.96456 15.9891 2.19467 16.0202H3.96449H5.56774H8.76866H11.2564H11.6714C11.8299 16.0202 11.9584 16.1488 11.9584 16.3073V18.9199V19.21V19.7528C11.9584 20.4791 11.8696 21.1813 11.704 21.8452C11.6051 22.2414 11.4789 22.624 11.3279 22.99C11.2217 23.2475 11.1032 23.4967 10.9733 23.7367C10.8616 23.943 11.0154 24.198 11.247 24.1604C11.6594 24.0936 12.0592 23.9808 12.4425 23.8266C12.4944 23.8057 12.5385 23.7693 12.5698 23.7229L15.1474 19.895L16.6741 17.6278C16.701 17.5877 16.7176 17.5416 16.7215 17.4935C16.7413 17.2543 16.7515 17.0118 16.7515 16.7666V12.4912V9.58855C16.7515 9.43 16.6229 9.30147 16.4644 9.30147H14.9884H13.5617H11.7987H11.7571H9.87589H8.60889H8.44314H6.97319C6.88382 9.30147 6.80398 9.34231 6.75133 9.40634C6.70389 9.43104 6.65755 9.46099 6.6129 9.49633L1.21512 13.7685ZM3.96449 14.9003H1.35219L7.48295 10.048H8.09309H8.60889H9.87589H11.1628C11.3573 10.048 11.4954 10.2374 11.4273 10.4195C11.1409 11.1857 10.7477 11.8848 10.2695 12.4912C10.1776 12.6078 10.0826 12.7209 9.98455 12.8304C9.85749 12.9724 9.72543 13.1083 9.58871 13.2378C8.49055 14.2774 7.09141 14.9003 5.56774 14.9003H3.96449Z" fill="#E8E5F8"/>
<path d="M46.3915 9.05617C45.9731 9.9943 45.5209 10.9189 45.0349 11.8301C44.549 12.7345 44.0394 13.5916 43.5062 14.4015C42.9798 15.2114 42.4399 15.9606 41.8864 16.649C41.333 17.3307 40.7829 17.9212 40.2363 18.4207C39.6963 18.9134 39.1665 19.3015 38.6468 19.5849C38.1339 19.8616 37.6479 20 37.189 20C37 20 36.8245 19.9663 36.6625 19.8988C36.5006 19.8313 36.3588 19.7402 36.2373 19.6254C36.1159 19.5039 36.0214 19.3622 35.9539 19.2002C35.8864 19.0382 35.8526 18.8628 35.8526 18.6738V13.7637L30.6288 19.6052C30.4938 19.7402 30.3453 19.8414 30.1833 19.9089C30.0281 19.9696 29.8661 20 29.6974 20C29.5151 20 29.343 19.9663 29.1811 19.8988C29.0258 19.8313 28.8875 19.7402 28.766 19.6254C28.6445 19.5039 28.5466 19.3622 28.4724 19.2002C28.4049 19.0382 28.3712 18.8628 28.3712 18.6738V9.05617H31.0033V15.2924L36.2475 9.43075C36.4365 9.24177 36.6592 9.12366 36.9156 9.07641C37.1789 9.02242 37.4353 9.04942 37.6851 9.1574C37.9348 9.25864 38.1305 9.42062 38.2722 9.64335C38.4207 9.85932 38.495 10.0989 38.495 10.3621V16.6186C39.0619 16.072 39.5748 15.4949 40.0338 14.8875C40.4927 14.28 40.9179 13.6557 41.3094 13.0146C41.7076 12.3667 42.0788 11.712 42.423 11.0506C42.774 10.3824 43.1148 9.71759 43.4455 9.05617H46.3915ZM59.0767 12.6805C59.0767 13.0449 59.0125 13.4398 58.8843 13.865C58.7561 14.2834 58.5468 14.6749 58.2566 15.0393C57.9732 15.397 57.5986 15.6974 57.1329 15.9404C56.6739 16.1833 56.1138 16.3048 55.4523 16.3048H50.7043V13.8042H55.4523C55.81 13.8042 56.0868 13.6962 56.2825 13.4803C56.4782 13.2575 56.5761 12.9842 56.5761 12.6602C56.5761 12.316 56.4647 12.0461 56.242 11.8503C56.026 11.6546 55.7628 11.5567 55.4523 11.5567H50.7043C50.3466 11.5567 50.0698 11.6681 49.8741 11.8908C49.6784 12.1068 49.5805 12.3768 49.5805 12.7007V16.3757C49.5805 16.7266 49.6885 17 49.9045 17.1957C50.1272 17.3914 50.4006 17.4893 50.7245 17.4893H55.4523V20H50.7043C50.3398 20 49.945 19.9359 49.5198 19.8076C49.1013 19.6794 48.7099 19.4736 48.3454 19.1901C47.9877 18.8999 47.6874 18.5253 47.4444 18.0664C47.2014 17.6007 47.0799 17.0371 47.0799 16.3757V12.6805C47.0799 12.316 47.1441 11.9246 47.2723 11.5061C47.4005 11.0809 47.6064 10.6895 47.8898 10.3318C48.1801 9.96731 48.5546 9.66359 49.0136 9.42062C49.4793 9.17765 50.0428 9.05617 50.7043 9.05617H55.4523C55.8168 9.05617 56.2082 9.12028 56.6267 9.24852C57.0519 9.37675 57.4433 9.58598 57.8011 9.87619C58.1655 10.1597 58.4692 10.5342 58.7122 10.9999C58.9552 11.4589 59.0767 12.0191 59.0767 12.6805ZM72.9159 16.3048C72.9159 16.5545 72.8855 16.8178 72.8248 17.0945C72.7708 17.3712 72.6831 17.6479 72.5616 17.9246C72.4401 18.1946 72.2815 18.4544 72.0857 18.7042C71.8968 18.9539 71.6639 19.1766 71.3872 19.3723C71.1172 19.5613 70.8034 19.7132 70.4457 19.8279C70.088 19.9426 69.683 20 69.2308 20H64.4828C64.233 20 63.9698 19.973 63.6931 19.919C63.4164 19.8583 63.1397 19.7672 62.863 19.6457C62.593 19.5242 62.3331 19.3689 62.0834 19.18C61.8337 18.9842 61.611 18.7514 61.4153 18.4814C61.2263 18.2047 61.0744 17.8875 60.9597 17.5298C60.8449 17.1653 60.7876 16.757 60.7876 16.3048V4.42959H63.4198V16.3048C63.4198 16.6288 63.521 16.8886 63.7235 17.0843C63.926 17.2733 64.1791 17.3678 64.4828 17.3678H69.2308C69.5615 17.3678 69.818 17.2699 70.0002 17.0742C70.1892 16.8785 70.2837 16.622 70.2837 16.3048V12.7412C70.2837 12.4105 70.1858 12.1541 69.9901 11.9718C69.7944 11.7828 69.5413 11.6884 69.2308 11.6884H64.4828V9.05617H69.2308C69.4806 9.05617 69.7438 9.08654 70.0205 9.14728C70.2972 9.20127 70.5705 9.28901 70.8405 9.4105C71.1172 9.53198 71.3805 9.69059 71.6302 9.88632C71.8799 10.0753 72.0992 10.3081 72.2882 10.5849C72.4772 10.8548 72.6291 11.1687 72.7438 11.5264C72.8585 11.8841 72.9159 12.289 72.9159 12.7412V16.3048ZM85.7428 16.3048C85.7428 16.757 85.6854 17.1653 85.5707 17.5298C85.4559 17.8875 85.3041 18.2047 85.1151 18.4814C84.9261 18.7514 84.7068 18.9842 84.457 19.18C84.2073 19.3689 83.9441 19.5242 83.6674 19.6457C83.3974 19.7672 83.1207 19.8583 82.8372 19.919C82.5605 19.973 82.2973 20 82.0476 20H74.9204V17.3678H82.0273C82.385 17.3678 82.655 17.2767 82.8372 17.0945C83.0195 16.9122 83.1106 16.649 83.1106 16.3048C83.0768 15.6029 82.7225 15.2519 82.0476 15.2519H77.9677C77.3872 15.2519 76.8946 15.1507 76.4896 14.9482C76.0846 14.7457 75.7539 14.4926 75.4975 14.1889C75.2477 13.8852 75.0655 13.5579 74.9508 13.2069C74.8428 12.856 74.7888 12.5286 74.7888 12.2249C74.7888 11.6377 74.8934 11.145 75.1026 10.7468C75.3119 10.3419 75.5751 10.0146 75.8923 9.76483C76.2095 9.51511 76.5537 9.33626 76.9249 9.22827C77.2961 9.11353 77.6437 9.05617 77.9677 9.05617H84.4368V11.6884H77.9879C77.8529 11.6884 77.745 11.7052 77.664 11.739C77.5897 11.766 77.5324 11.8065 77.4919 11.8605C77.4581 11.9077 77.4379 11.9617 77.4311 12.0224C77.4244 12.0764 77.421 12.1304 77.421 12.1844C77.4277 12.2924 77.448 12.3768 77.4817 12.4375C77.5155 12.4983 77.556 12.5421 77.6032 12.5691C77.6572 12.5961 77.7146 12.613 77.7753 12.6197C77.8428 12.6197 77.9069 12.6197 77.9677 12.6197H82.0476C82.7225 12.6197 83.2962 12.7412 83.7686 12.9842C84.2411 13.2272 84.6224 13.5343 84.9126 13.9055C85.2028 14.2699 85.412 14.6681 85.5403 15.1001C85.6753 15.532 85.7428 15.9336 85.7428 16.3048ZM99.7237 20H97.0915V13.9257C97.0915 13.5815 97.0308 13.2744 96.9093 13.0045C96.7946 12.7277 96.636 12.4915 96.4335 12.2958C96.231 12.1001 95.9914 11.9516 95.7147 11.8503C95.4447 11.7423 95.1512 11.6884 94.8339 11.6884H90.2276V20H87.5954V10.3621C87.5954 10.1799 87.6292 10.0112 87.6967 9.85595C87.7641 9.69397 87.8586 9.55561 87.9801 9.44087C88.1016 9.31938 88.2433 9.2249 88.4053 9.1574C88.5673 9.08991 88.7394 9.05617 88.9216 9.05617H94.8542C95.1849 9.05617 95.5325 9.09329 95.8969 9.16753C96.2681 9.24177 96.6326 9.36325 96.9903 9.53198C97.3548 9.69397 97.699 9.90319 98.0229 10.1597C98.3536 10.4094 98.6439 10.7165 98.8936 11.0809C99.1501 11.4386 99.3525 11.8537 99.501 12.3262C99.6495 12.7986 99.7237 13.3318 99.7237 13.9257V20ZM113.33 16.3757C113.33 16.7401 113.266 17.135 113.138 17.5602C113.01 17.9786 112.8 18.3701 112.51 18.7345C112.227 19.0922 111.852 19.3926 111.386 19.6355C110.927 19.8785 110.367 20 109.706 20H104.958C104.593 20 104.198 19.9359 103.773 19.8076C103.355 19.6794 102.963 19.4736 102.599 19.1901C102.241 18.8999 101.941 18.5253 101.698 18.0664C101.455 17.6007 101.333 17.0371 101.333 16.3757C101.333 16.0112 101.398 15.6164 101.526 15.1912C101.654 14.766 101.86 14.3745 102.143 14.0168C102.434 13.6524 102.808 13.3487 103.267 13.1057C103.733 12.8627 104.296 12.7412 104.958 12.7412H109.706V15.2519H104.958C104.6 15.2519 104.323 15.3633 104.128 15.586C103.932 15.802 103.834 16.072 103.834 16.3959C103.834 16.7401 103.945 17.0101 104.168 17.2058C104.398 17.3948 104.668 17.4893 104.978 17.4893H109.706C110.064 17.4893 110.34 17.3813 110.536 17.1653C110.732 16.9494 110.83 16.6794 110.83 16.3554V12.6805C110.83 12.3363 110.722 12.0629 110.506 11.8605C110.296 11.658 110.03 11.5567 109.706 11.5567H103.925V9.05617H109.706C110.07 9.05617 110.462 9.12028 110.88 9.24852C111.305 9.37675 111.697 9.58598 112.055 9.87619C112.419 10.1597 112.723 10.5342 112.966 10.9999C113.209 11.4589 113.33 12.0191 113.33 12.6805V16.3757ZM127.645 16.3048C127.645 16.757 127.588 17.1653 127.473 17.5298C127.358 17.8875 127.206 18.2047 127.018 18.4814C126.829 18.7514 126.609 18.9842 126.359 19.18C126.11 19.3689 125.847 19.5242 125.57 19.6457C125.3 19.7672 125.027 19.8583 124.75 19.919C124.473 19.973 124.21 20 123.96 20H119.212V17.3678H123.96C124.311 17.3678 124.574 17.2767 124.75 17.0945C124.925 16.9122 125.013 16.649 125.013 16.3048V12.7615C125.013 12.397 124.922 12.1271 124.74 11.9516C124.564 11.7761 124.304 11.6884 123.96 11.6884H119.232C118.875 11.6884 118.605 11.7795 118.422 11.9617C118.24 12.1372 118.149 12.397 118.149 12.7412V23.4218H115.517V12.7412C115.517 12.289 115.574 11.8841 115.689 11.5264C115.804 11.1687 115.956 10.8548 116.145 10.5849C116.34 10.3081 116.563 10.0753 116.813 9.88632C117.062 9.69059 117.322 9.53198 117.592 9.4105C117.869 9.28901 118.146 9.20127 118.422 9.14728C118.706 9.08654 118.969 9.05617 119.212 9.05617H123.96C124.412 9.05617 124.817 9.11353 125.175 9.22827C125.533 9.34301 125.847 9.49486 126.117 9.68384C126.393 9.87282 126.626 10.0922 126.815 10.3419C127.011 10.5916 127.169 10.8548 127.291 11.1315C127.412 11.4015 127.5 11.6749 127.554 11.9516C127.615 12.2283 127.645 12.4915 127.645 12.7412V16.3048Z" fill="#F8F7FF"/>
</svg>
